# xmcd CD database file
#
# Track frame offsets:
#	150
#	23048
#	53086
#	79648
#	105941
#	139312
#	168969
#	199745
#	229794
#	255630
#	284128
#	309223
#
# Disc length: 4516 seconds
#
# Revision: 2
# Processed by: cddbd v1.5.2PL0 Copyright (c) Steve Scherf et al.
# Submitted via: CDex 1.51
#
DISCID=9911a20c
DTITLE=Bob James - The Very Best Of Bob James [CD1]
DYEAR=2009
DGENRE=Jazz
TTITLE0=Nautilus
TTITLE1=Feel Like Makin' Love
TTITLE2=Night On Bald Mountain
TTITLE3=Take Me To The Mardi Gras
TTITLE4=Westchester Lady
TTITLE5=Storm King
TTITLE6=Tappan Zee
TTITLE7=Heads
TTITLE8=Angela (Theme from Taxi)
TTITLE9=Sun Runner
TTITLE10=Blue Lick
TTITLE11=The Afterglow (with Earl Klugh)
EXTD=YEAR: 2009
EXTT0=
EXTT1=
EXTT2=
EXTT3=
EXTT4=
EXTT5=
EXTT6=
EXTT7=
EXTT8=
EXTT9=
EXTT10=
EXTT11=
PLAYORDER=
